{
 "cells": [
  {
   "cell_type": "markdown",
   "id": "14fd7d95",
   "metadata": {},
   "source": [
    "### Copy and compress video files"
   ]
  },
  {
   "cell_type": "code",
   "execution_count": 1,
   "id": "f340eee0",
   "metadata": {},
   "outputs": [],
   "source": [
    "from pathlib2 import Path\n",
    "import pathlib2 \n",
    "import os"
   ]
  },
  {
   "cell_type": "code",
   "execution_count": 2,
   "id": "99c326d5",
   "metadata": {},
   "outputs": [],
   "source": [
    "from tqdm import tqdm"
   ]
  },
  {
   "cell_type": "code",
   "execution_count": 3,
   "id": "bf026b15",
   "metadata": {},
   "outputs": [],
   "source": [
    "# settings\n",
    "crf = 15 # 0 = lossless, 51 = worst"
   ]
  },
  {
   "cell_type": "code",
   "execution_count": 4,
   "id": "c2b514df",
   "metadata": {},
   "outputs": [],
   "source": [
    "# mirror flip bottom cameras \n",
    "cameras_to_mirror = []#[\"FB\", \"BB\"]"
   ]
  },
  {
   "cell_type": "code",
   "execution_count": 5,
   "id": "49e08a8a",
   "metadata": {},
   "outputs": [],
   "source": [
    "base_path_local = Path(\"/media/dattalab/starling_rec/recordings/\")\n",
    "base_path_save= Path('/n/groups/datta/tim_sainburg/datasets/3D_keypoints/compressed/') \n",
    "subfolder = '22-10-11-test-flicker'"
   ]
  },
  {
   "cell_type": "code",
   "execution_count": 20,
   "id": "ddfa5dfe",
   "metadata": {},
   "outputs": [],
   "source": [
    "# '/home/dattalab/JARVIS/sync_flir_azure_9_27/recordings/Recording_2022-09-27T122406'\n",
    "# folder with recordings\n",
    "video_folder = csv_folder = base_path_local / subfolder\n",
    "# folder to save recordings folder\n",
    "output_folder = base_path_save / subfolder"
   ]
  },
  {
   "cell_type": "code",
   "execution_count": 7,
   "id": "f74a8ad1",
   "metadata": {},
   "outputs": [],
   "source": [
    "if not os.path.exists('/n/groups/datta/tim_sainburg'):\n",
    "    raise ValueError('must mount /n/groups/datta')"
   ]
  },
  {
   "cell_type": "code",
   "execution_count": 8,
   "id": "ac39dd2e",
   "metadata": {},
   "outputs": [],
   "source": [
    "save_folder = output_folder /video_folder.stem"
   ]
  },
  {
   "cell_type": "code",
   "execution_count": 9,
   "id": "a68f6cd6",
   "metadata": {},
   "outputs": [],
   "source": [
    "def ensure_dir(file_path):\n",
    "    \"\"\" create a safely nested folder\n",
    "    \"\"\"\n",
    "    if type(file_path) == str:\n",
    "        if \".\" in os.path.basename(os.path.normpath(file_path)):\n",
    "            directory = os.path.dirname(file_path)\n",
    "        else:\n",
    "            directory = os.path.normpath(file_path)\n",
    "        if not os.path.exists(directory):\n",
    "            try:\n",
    "                os.makedirs(directory)\n",
    "            except FileExistsError as e:\n",
    "                # multiprocessing can cause directory creation problems\n",
    "                print(e)\n",
    "    elif type(file_path) == pathlib2.PosixPath:\n",
    "        # if this is a file\n",
    "        if len(file_path.suffix) > 0:\n",
    "            file_path.parent.mkdir(parents=True, exist_ok=True)\n",
    "        else:\n",
    "            file_path.mkdir(parents=True, exist_ok=True)"
   ]
  },
  {
   "cell_type": "code",
   "execution_count": 10,
   "id": "991f8a9b",
   "metadata": {},
   "outputs": [],
   "source": [
    "ensure_dir(save_folder)"
   ]
  },
  {
   "cell_type": "code",
   "execution_count": 11,
   "id": "1bff607a",
   "metadata": {},
   "outputs": [],
   "source": [
    "videos_to_convert = list(video_folder.glob('**/*.avi'))"
   ]
  },
  {
   "cell_type": "code",
   "execution_count": 12,
   "id": "cf102781",
   "metadata": {},
   "outputs": [
    {
     "data": {
      "text/plain": [
       "[PosixPath('/media/dattalab/starling_rec/recordings/22-10-11-test-flicker/Recording_2022-11-03T174548/T.avi'),\n",
       " PosixPath('/media/dattalab/starling_rec/recordings/22-10-11-test-flicker/Recording_2022-11-03T174548/BR.avi'),\n",
       " PosixPath('/media/dattalab/starling_rec/recordings/22-10-11-test-flicker/Recording_2022-11-03T174548/BB.avi'),\n",
       " PosixPath('/media/dattalab/starling_rec/recordings/22-10-11-test-flicker/Recording_2022-11-03T174548/BL.avi'),\n",
       " PosixPath('/media/dattalab/starling_rec/recordings/22-10-11-test-flicker/Recording_2022-11-03T174548/FB.avi'),\n",
       " PosixPath('/media/dattalab/starling_rec/recordings/22-10-11-test-flicker/Recording_2022-11-03T174548/FR.avi'),\n",
       " PosixPath('/media/dattalab/starling_rec/recordings/22-10-11-test-flicker/Recording_2022-11-03T174548/FL.avi'),\n",
       " PosixPath('/media/dattalab/starling_rec/recordings/22-10-11-test-flicker/UVFlashingLightsTest_11-1_M3/T.avi'),\n",
       " PosixPath('/media/dattalab/starling_rec/recordings/22-10-11-test-flicker/UVFlashingLightsTest_11-1_M3/BR.avi'),\n",
       " PosixPath('/media/dattalab/starling_rec/recordings/22-10-11-test-flicker/UVFlashingLightsTest_11-1_M3/BB.avi'),\n",
       " PosixPath('/media/dattalab/starling_rec/recordings/22-10-11-test-flicker/UVFlashingLightsTest_11-1_M3/BL.avi'),\n",
       " PosixPath('/media/dattalab/starling_rec/recordings/22-10-11-test-flicker/UVFlashingLightsTest_11-1_M3/FB.avi'),\n",
       " PosixPath('/media/dattalab/starling_rec/recordings/22-10-11-test-flicker/UVFlashingLightsTest_11-1_M3/FR.avi'),\n",
       " PosixPath('/media/dattalab/starling_rec/recordings/22-10-11-test-flicker/UVFlashingLightsTest_11-1_M3/FL.avi'),\n",
       " PosixPath('/media/dattalab/starling_rec/recordings/22-10-11-test-flicker/Recording_2022-11-03T174516/T.avi'),\n",
       " PosixPath('/media/dattalab/starling_rec/recordings/22-10-11-test-flicker/Recording_2022-11-03T174516/BR.avi'),\n",
       " PosixPath('/media/dattalab/starling_rec/recordings/22-10-11-test-flicker/Recording_2022-11-03T174516/BB.avi'),\n",
       " PosixPath('/media/dattalab/starling_rec/recordings/22-10-11-test-flicker/Recording_2022-11-03T174516/BL.avi'),\n",
       " PosixPath('/media/dattalab/starling_rec/recordings/22-10-11-test-flicker/Recording_2022-11-03T174516/FB.avi'),\n",
       " PosixPath('/media/dattalab/starling_rec/recordings/22-10-11-test-flicker/Recording_2022-11-03T174516/FR.avi'),\n",
       " PosixPath('/media/dattalab/starling_rec/recordings/22-10-11-test-flicker/Recording_2022-11-03T174516/FL.avi'),\n",
       " PosixPath('/media/dattalab/starling_rec/recordings/22-10-11-test-flicker/Recording_2022-11-03T174416/T.avi'),\n",
       " PosixPath('/media/dattalab/starling_rec/recordings/22-10-11-test-flicker/Recording_2022-11-03T174416/BR.avi'),\n",
       " PosixPath('/media/dattalab/starling_rec/recordings/22-10-11-test-flicker/Recording_2022-11-03T174416/BB.avi'),\n",
       " PosixPath('/media/dattalab/starling_rec/recordings/22-10-11-test-flicker/Recording_2022-11-03T174416/BL.avi'),\n",
       " PosixPath('/media/dattalab/starling_rec/recordings/22-10-11-test-flicker/Recording_2022-11-03T174416/FB.avi'),\n",
       " PosixPath('/media/dattalab/starling_rec/recordings/22-10-11-test-flicker/Recording_2022-11-03T174416/FR.avi'),\n",
       " PosixPath('/media/dattalab/starling_rec/recordings/22-10-11-test-flicker/Recording_2022-11-03T174416/FL.avi'),\n",
       " PosixPath('/media/dattalab/starling_rec/recordings/22-10-11-test-flicker/Recording_2022-11-03T174459/T.avi'),\n",
       " PosixPath('/media/dattalab/starling_rec/recordings/22-10-11-test-flicker/Recording_2022-11-03T174459/BR.avi'),\n",
       " PosixPath('/media/dattalab/starling_rec/recordings/22-10-11-test-flicker/Recording_2022-11-03T174459/BB.avi'),\n",
       " PosixPath('/media/dattalab/starling_rec/recordings/22-10-11-test-flicker/Recording_2022-11-03T174459/BL.avi'),\n",
       " PosixPath('/media/dattalab/starling_rec/recordings/22-10-11-test-flicker/Recording_2022-11-03T174459/FB.avi'),\n",
       " PosixPath('/media/dattalab/starling_rec/recordings/22-10-11-test-flicker/Recording_2022-11-03T174459/FR.avi'),\n",
       " PosixPath('/media/dattalab/starling_rec/recordings/22-10-11-test-flicker/Recording_2022-11-03T174459/FL.avi'),\n",
       " PosixPath('/media/dattalab/starling_rec/recordings/22-10-11-test-flicker/2022_11_3_markerset/T.avi'),\n",
       " PosixPath('/media/dattalab/starling_rec/recordings/22-10-11-test-flicker/2022_11_3_markerset/BR.avi'),\n",
       " PosixPath('/media/dattalab/starling_rec/recordings/22-10-11-test-flicker/2022_11_3_markerset/BB.avi'),\n",
       " PosixPath('/media/dattalab/starling_rec/recordings/22-10-11-test-flicker/2022_11_3_markerset/BL.avi'),\n",
       " PosixPath('/media/dattalab/starling_rec/recordings/22-10-11-test-flicker/2022_11_3_markerset/FB.avi'),\n",
       " PosixPath('/media/dattalab/starling_rec/recordings/22-10-11-test-flicker/2022_11_3_markerset/FR.avi'),\n",
       " PosixPath('/media/dattalab/starling_rec/recordings/22-10-11-test-flicker/2022_11_3_markerset/FL.avi'),\n",
       " PosixPath('/media/dattalab/starling_rec/recordings/22-10-11-test-flicker/UVFlashingLightsTest_11-1_M2/T.avi'),\n",
       " PosixPath('/media/dattalab/starling_rec/recordings/22-10-11-test-flicker/UVFlashingLightsTest_11-1_M2/BR.avi'),\n",
       " PosixPath('/media/dattalab/starling_rec/recordings/22-10-11-test-flicker/UVFlashingLightsTest_11-1_M2/BB.avi'),\n",
       " PosixPath('/media/dattalab/starling_rec/recordings/22-10-11-test-flicker/UVFlashingLightsTest_11-1_M2/BL.avi'),\n",
       " PosixPath('/media/dattalab/starling_rec/recordings/22-10-11-test-flicker/UVFlashingLightsTest_11-1_M2/FB.avi'),\n",
       " PosixPath('/media/dattalab/starling_rec/recordings/22-10-11-test-flicker/UVFlashingLightsTest_11-1_M2/FR.avi'),\n",
       " PosixPath('/media/dattalab/starling_rec/recordings/22-10-11-test-flicker/UVFlashingLightsTest_11-1_M2/FL.avi'),\n",
       " PosixPath('/media/dattalab/starling_rec/recordings/22-10-11-test-flicker/UVLightsTest_11-1_M1/T.avi'),\n",
       " PosixPath('/media/dattalab/starling_rec/recordings/22-10-11-test-flicker/UVLightsTest_11-1_M1/BR.avi'),\n",
       " PosixPath('/media/dattalab/starling_rec/recordings/22-10-11-test-flicker/UVLightsTest_11-1_M1/BB.avi'),\n",
       " PosixPath('/media/dattalab/starling_rec/recordings/22-10-11-test-flicker/UVLightsTest_11-1_M1/BL.avi'),\n",
       " PosixPath('/media/dattalab/starling_rec/recordings/22-10-11-test-flicker/UVLightsTest_11-1_M1/FB.avi'),\n",
       " PosixPath('/media/dattalab/starling_rec/recordings/22-10-11-test-flicker/UVLightsTest_11-1_M1/FR.avi'),\n",
       " PosixPath('/media/dattalab/starling_rec/recordings/22-10-11-test-flicker/UVLightsTest_11-1_M1/FL.avi'),\n",
       " PosixPath('/media/dattalab/starling_rec/recordings/22-10-11-test-flicker/ketamine-test-2h/T.avi'),\n",
       " PosixPath('/media/dattalab/starling_rec/recordings/22-10-11-test-flicker/ketamine-test-2h/BR.avi'),\n",
       " PosixPath('/media/dattalab/starling_rec/recordings/22-10-11-test-flicker/ketamine-test-2h/BB.avi'),\n",
       " PosixPath('/media/dattalab/starling_rec/recordings/22-10-11-test-flicker/ketamine-test-2h/BL.avi'),\n",
       " PosixPath('/media/dattalab/starling_rec/recordings/22-10-11-test-flicker/ketamine-test-2h/FB.avi'),\n",
       " PosixPath('/media/dattalab/starling_rec/recordings/22-10-11-test-flicker/ketamine-test-2h/FR.avi'),\n",
       " PosixPath('/media/dattalab/starling_rec/recordings/22-10-11-test-flicker/ketamine-test-2h/FL.avi'),\n",
       " PosixPath('/media/dattalab/starling_rec/recordings/22-10-11-test-flicker/ketamine-5m/T.avi'),\n",
       " PosixPath('/media/dattalab/starling_rec/recordings/22-10-11-test-flicker/ketamine-5m/BR.avi'),\n",
       " PosixPath('/media/dattalab/starling_rec/recordings/22-10-11-test-flicker/ketamine-5m/BB.avi'),\n",
       " PosixPath('/media/dattalab/starling_rec/recordings/22-10-11-test-flicker/ketamine-5m/BL.avi'),\n",
       " PosixPath('/media/dattalab/starling_rec/recordings/22-10-11-test-flicker/ketamine-5m/FB.avi'),\n",
       " PosixPath('/media/dattalab/starling_rec/recordings/22-10-11-test-flicker/ketamine-5m/FR.avi'),\n",
       " PosixPath('/media/dattalab/starling_rec/recordings/22-10-11-test-flicker/ketamine-5m/FL.avi'),\n",
       " PosixPath('/media/dattalab/starling_rec/recordings/22-10-11-test-flicker/UVLightsTest_11-1_Mouse1/T.avi'),\n",
       " PosixPath('/media/dattalab/starling_rec/recordings/22-10-11-test-flicker/UVLightsTest_11-1_Mouse1/BR.avi'),\n",
       " PosixPath('/media/dattalab/starling_rec/recordings/22-10-11-test-flicker/UVLightsTest_11-1_Mouse1/BB.avi'),\n",
       " PosixPath('/media/dattalab/starling_rec/recordings/22-10-11-test-flicker/UVLightsTest_11-1_Mouse1/BL.avi'),\n",
       " PosixPath('/media/dattalab/starling_rec/recordings/22-10-11-test-flicker/UVLightsTest_11-1_Mouse1/FB.avi'),\n",
       " PosixPath('/media/dattalab/starling_rec/recordings/22-10-11-test-flicker/UVLightsTest_11-1_Mouse1/FR.avi'),\n",
       " PosixPath('/media/dattalab/starling_rec/recordings/22-10-11-test-flicker/UVLightsTest_11-1_Mouse1/FL.avi'),\n",
       " PosixPath('/media/dattalab/starling_rec/recordings/22-10-11-test-flicker/UVFlashingLightsTest_11-1_M1/T.avi'),\n",
       " PosixPath('/media/dattalab/starling_rec/recordings/22-10-11-test-flicker/UVFlashingLightsTest_11-1_M1/BR.avi'),\n",
       " PosixPath('/media/dattalab/starling_rec/recordings/22-10-11-test-flicker/UVFlashingLightsTest_11-1_M1/BB.avi'),\n",
       " PosixPath('/media/dattalab/starling_rec/recordings/22-10-11-test-flicker/UVFlashingLightsTest_11-1_M1/BL.avi'),\n",
       " PosixPath('/media/dattalab/starling_rec/recordings/22-10-11-test-flicker/UVFlashingLightsTest_11-1_M1/FB.avi'),\n",
       " PosixPath('/media/dattalab/starling_rec/recordings/22-10-11-test-flicker/UVFlashingLightsTest_11-1_M1/FR.avi'),\n",
       " PosixPath('/media/dattalab/starling_rec/recordings/22-10-11-test-flicker/UVFlashingLightsTest_11-1_M1/FL.avi')]"
      ]
     },
     "execution_count": 12,
     "metadata": {},
     "output_type": "execute_result"
    }
   ],
   "source": [
    "list(videos_to_convert)"
   ]
  },
  {
   "cell_type": "code",
   "execution_count": 13,
   "id": "a82ab061",
   "metadata": {},
   "outputs": [],
   "source": [
    "import ffmpeg\n",
    "import numpy as np\n",
    "from tqdm.auto import tqdm\n",
    "import subprocess"
   ]
  },
  {
   "cell_type": "code",
   "execution_count": 14,
   "id": "5e0eefa8",
   "metadata": {},
   "outputs": [],
   "source": [
    "#ffmpeg -i FL.avi -c:v libx265 -vtag hvc1 -crf 20 -preset ultrafast FL_compressed-265-2.avi"
   ]
  },
  {
   "cell_type": "code",
   "execution_count": 17,
   "id": "2b41ed50",
   "metadata": {},
   "outputs": [],
   "source": [
    "from IPython.display import clear_output\n",
    "import os\n",
    "import shutil\n"
   ]
  },
  {
   "cell_type": "code",
   "execution_count": 18,
   "id": "954b228e",
   "metadata": {},
   "outputs": [],
   "source": [
    "delete_local_video = False"
   ]
  },
  {
   "cell_type": "code",
   "execution_count": 22,
   "id": "c596abf9",
   "metadata": {},
   "outputs": [
    {
     "data": {
      "application/vnd.jupyter.widget-view+json": {
       "model_id": "c4265f0ae7df49b79a65ee53d46d1e58",
       "version_major": 2,
       "version_minor": 0
      },
      "text/plain": [
       "  0%|          | 0/23 [00:00<?, ?it/s]"
      ]
     },
     "metadata": {},
     "output_type": "display_data"
    }
   ],
   "source": [
    "# copy all metadata (metadata.csv and triggerdata.csv)\n",
    "metadata_to_copy = list(csv_folder.glob('**/metadata.csv'))\n",
    "triggerdata_to_copy = list(csv_folder.glob('**/triggerdata.csv'))\n",
    "for csv_file in tqdm(metadata_to_copy + triggerdata_to_copy):\n",
    "    # get the name to save for the output folder\n",
    "    number_of_parents_to_base = np.where([i == csv_folder for i in list(csv_file.parents)])[0][0]\n",
    "    sub_folders = csv_file.parts[len(csv_file.parts)-1-number_of_parents_to_base:-1]\n",
    "    csv_out = output_folder\n",
    "    for i in sub_folders:\n",
    "        csv_out = csv_out / i\n",
    "    csv_out = csv_out / csv_file.name\n",
    "    \n",
    "    ensure_dir(csv_out)\n",
    "    \n",
    "    if csv_out.exists():\n",
    "        print('Video already exists, skipping \\n\\t {}'.format('/'.join(video.parts[-3:])))\n",
    "\n",
    "        #if delete_local_video:\n",
    "            #os.remove(csv_file)\n",
    "\n",
    "        continue\n",
    "        \n",
    "    else:\n",
    "        shutil.copyfile(csv_file, csv_out)"
   ]
  },
  {
   "cell_type": "code",
   "execution_count": 25,
   "id": "ac240b16",
   "metadata": {},
   "outputs": [
    {
     "data": {
      "application/vnd.jupyter.widget-view+json": {
       "model_id": "5c31534813de4f9aa50c1d3abaa19721",
       "version_major": 2,
       "version_minor": 0
      },
      "text/plain": [
       "  0%|          | 0/84 [00:00<?, ?it/s]"
      ]
     },
     "metadata": {},
     "output_type": "display_data"
    },
    {
     "name": "stdout",
     "output_type": "stream",
     "text": [
      "Video already exists, skipping \n",
      "\t 22-10-11-test-flicker/Recording_2022-11-03T174548/T.avi\n",
      "Video already exists, skipping \n",
      "\t 22-10-11-test-flicker/Recording_2022-11-03T174548/BR.avi\n",
      "Video already exists, skipping \n",
      "\t 22-10-11-test-flicker/Recording_2022-11-03T174548/BB.avi\n",
      "Video already exists, skipping \n",
      "\t 22-10-11-test-flicker/Recording_2022-11-03T174548/BL.avi\n",
      "Video already exists, skipping \n",
      "\t 22-10-11-test-flicker/Recording_2022-11-03T174548/FB.avi\n",
      "Video already exists, skipping \n",
      "\t 22-10-11-test-flicker/Recording_2022-11-03T174548/FR.avi\n",
      "Video already exists, skipping \n",
      "\t 22-10-11-test-flicker/Recording_2022-11-03T174548/FL.avi\n",
      "Video already exists, skipping \n",
      "\t 22-10-11-test-flicker/UVFlashingLightsTest_11-1_M3/T.avi\n",
      "Video already exists, skipping \n",
      "\t 22-10-11-test-flicker/UVFlashingLightsTest_11-1_M3/BR.avi\n",
      "Video already exists, skipping \n",
      "\t 22-10-11-test-flicker/UVFlashingLightsTest_11-1_M3/BB.avi\n",
      "Video already exists, skipping \n",
      "\t 22-10-11-test-flicker/UVFlashingLightsTest_11-1_M3/BL.avi\n",
      "Video already exists, skipping \n",
      "\t 22-10-11-test-flicker/UVFlashingLightsTest_11-1_M3/FB.avi\n",
      "Video already exists, skipping \n",
      "\t 22-10-11-test-flicker/UVFlashingLightsTest_11-1_M3/FR.avi\n",
      "Video already exists, skipping \n",
      "\t 22-10-11-test-flicker/UVFlashingLightsTest_11-1_M3/FL.avi\n",
      "Video already exists, skipping \n",
      "\t 22-10-11-test-flicker/Recording_2022-11-03T174516/T.avi\n",
      "Video already exists, skipping \n",
      "\t 22-10-11-test-flicker/Recording_2022-11-03T174516/BR.avi\n",
      "Video already exists, skipping \n",
      "\t 22-10-11-test-flicker/Recording_2022-11-03T174516/BB.avi\n",
      "Video already exists, skipping \n",
      "\t 22-10-11-test-flicker/Recording_2022-11-03T174516/BL.avi\n",
      "Video already exists, skipping \n",
      "\t 22-10-11-test-flicker/Recording_2022-11-03T174516/FB.avi\n",
      "Video already exists, skipping \n",
      "\t 22-10-11-test-flicker/Recording_2022-11-03T174516/FR.avi\n",
      "Video already exists, skipping \n",
      "\t 22-10-11-test-flicker/Recording_2022-11-03T174516/FL.avi\n",
      "Video already exists, skipping \n",
      "\t 22-10-11-test-flicker/Recording_2022-11-03T174416/T.avi\n",
      "Video already exists, skipping \n",
      "\t 22-10-11-test-flicker/Recording_2022-11-03T174416/BR.avi\n",
      "Video already exists, skipping \n",
      "\t 22-10-11-test-flicker/Recording_2022-11-03T174416/BB.avi\n",
      "Video already exists, skipping \n",
      "\t 22-10-11-test-flicker/Recording_2022-11-03T174416/BL.avi\n",
      "Video already exists, skipping \n",
      "\t 22-10-11-test-flicker/Recording_2022-11-03T174416/FB.avi\n",
      "Video already exists, skipping \n",
      "\t 22-10-11-test-flicker/Recording_2022-11-03T174416/FR.avi\n",
      "Video already exists, skipping \n",
      "\t 22-10-11-test-flicker/Recording_2022-11-03T174416/FL.avi\n",
      "Video already exists, skipping \n",
      "\t 22-10-11-test-flicker/Recording_2022-11-03T174459/T.avi\n",
      "Video already exists, skipping \n",
      "\t 22-10-11-test-flicker/Recording_2022-11-03T174459/BR.avi\n",
      "Video already exists, skipping \n",
      "\t 22-10-11-test-flicker/Recording_2022-11-03T174459/BB.avi\n",
      "Video already exists, skipping \n",
      "\t 22-10-11-test-flicker/Recording_2022-11-03T174459/BL.avi\n",
      "Video already exists, skipping \n",
      "\t 22-10-11-test-flicker/Recording_2022-11-03T174459/FB.avi\n",
      "Video already exists, skipping \n",
      "\t 22-10-11-test-flicker/Recording_2022-11-03T174459/FR.avi\n",
      "Video already exists, skipping \n",
      "\t 22-10-11-test-flicker/Recording_2022-11-03T174459/FL.avi\n",
      "converting 22-10-11-test-flicker/2022_11_3_markerset/T.avi\n"
     ]
    },
    {
     "name": "stderr",
     "output_type": "stream",
     "text": [
      "ffmpeg version 4.2.7-0ubuntu0.1 Copyright (c) 2000-2022 the FFmpeg developers\n",
      "  built with gcc 9 (Ubuntu 9.4.0-1ubuntu1~20.04.1)\n",
      "  configuration: --prefix=/usr --extra-version=0ubuntu0.1 --toolchain=hardened --libdir=/usr/lib/x86_64-linux-gnu --incdir=/usr/include/x86_64-linux-gnu --arch=amd64 --enable-gpl --disable-stripping --enable-avresample --disable-filter=resample --enable-avisynth --enable-gnutls --enable-ladspa --enable-libaom --enable-libass --enable-libbluray --enable-libbs2b --enable-libcaca --enable-libcdio --enable-libcodec2 --enable-libflite --enable-libfontconfig --enable-libfreetype --enable-libfribidi --enable-libgme --enable-libgsm --enable-libjack --enable-libmp3lame --enable-libmysofa --enable-libopenjpeg --enable-libopenmpt --enable-libopus --enable-libpulse --enable-librsvg --enable-librubberband --enable-libshine --enable-libsnappy --enable-libsoxr --enable-libspeex --enable-libssh --enable-libtheora --enable-libtwolame --enable-libvidstab --enable-libvorbis --enable-libvpx --enable-libwavpack --enable-libwebp --enable-libx265 --enable-libxml2 --enable-libxvid --enable-libzmq --enable-libzvbi --enable-lv2 --enable-omx --enable-openal --enable-opencl --enable-opengl --enable-sdl2 --enable-libdc1394 --enable-libdrm --enable-libiec61883 --enable-nvenc --enable-chromaprint --enable-frei0r --enable-libx264 --enable-shared\n",
      "  libavutil      56. 31.100 / 56. 31.100\n",
      "  libavcodec     58. 54.100 / 58. 54.100\n",
      "  libavformat    58. 29.100 / 58. 29.100\n",
      "  libavdevice    58.  8.100 / 58.  8.100\n",
      "  libavfilter     7. 57.100 /  7. 57.100\n",
      "  libavresample   4.  0.  0 /  4.  0.  0\n",
      "  libswscale      5.  5.100 /  5.  5.100\n",
      "  libswresample   3.  5.100 /  3.  5.100\n",
      "  libpostproc    55.  5.100 / 55.  5.100\n",
      "Input #0, avi, from '/media/dattalab/starling_rec/recordings/22-10-11-test-flicker/2022_11_3_markerset/T.avi':\n",
      "  Metadata:\n",
      "    encoder         : Lavf58.29.100\n",
      "  Duration: 00:36:25.00, start: 0.000000, bitrate: 188740 kb/s\n",
      "    Stream #0:0: Video: mjpeg (Baseline) (MJPG / 0x47504A4D), yuvj420p(pc, bt470bg/unknown/unknown), 1280x1024 [SAR 1:1 DAR 5:4], 188728 kb/s, 100 fps, 100 tbr, 100 tbn, 100 tbc\n",
      "Stream mapping:\n",
      "  Stream #0:0 -> #0:0 (mjpeg (native) -> hevc (libx265))\n",
      "Press [q] to stop, [?] for help\n",
      "x265 [info]: HEVC encoder version 3.2.1+1-b5c86a64bbbe\n",
      "x265 [info]: build info [Linux][GCC 9.3.0][64 bit] 8bit+10bit+12bit\n",
      "x265 [info]: using cpu capabilities: MMX2 SSE2Fast LZCNT SSSE3 SSE4.2 AVX FMA3 BMI2 AVX2\n",
      "x265 [info]: Main profile, Level-4.1 (Main tier)\n",
      "x265 [info]: Thread pool created using 24 threads\n",
      "x265 [info]: Slices                              : 1\n",
      "x265 [info]: frame threads / pool features       : 4 / wpp(32 rows)\n",
      "x265 [info]: Coding QT: max CU size, min CU size : 32 / 16\n",
      "x265 [info]: Residual QT: max TU size, max depth : 32 / 1 inter / 1 intra\n",
      "x265 [info]: ME / range / subpel / merge         : dia / 57 / 0 / 2\n",
      "x265 [info]: Keyframe min / max / scenecut / bias: 25 / 250 / 0 / 5.00\n",
      "x265 [info]: Lookahead / bframes / badapt        : 5 / 3 / 0\n",
      "x265 [info]: b-pyramid / weightp / weightb       : 1 / 0 / 0\n",
      "x265 [info]: References / ref-limit  cu / depth  : 1 / off / off\n",
      "x265 [info]: AQ: mode / str / qg-size / cu-tree  : 1 / 0.0 / 32 / 1\n",
      "x265 [info]: Rate Control / qCompress            : CRF-15.0 / 0.60\n",
      "x265 [info]: tools: rd=2 psy-rd=2.00 early-skip rskip tmvp fast-intra\n",
      "x265 [info]: tools: strong-intra-smoothing lslices=6 deblock\n",
      "Output #0, avi, to '/n/groups/datta/tim_sainburg/datasets/3D_keypoints/compressed/22-10-11-test-flicker/2022_11_3_markerset/T.avi':\n",
      "  Metadata:\n",
      "    ISFT            : Lavf58.29.100\n",
      "    Stream #0:0: Video: hevc (libx265) (hvc1 / 0x31637668), yuvj420p(pc), 1280x1024 [SAR 1:1 DAR 5:4], q=2-31, 100 fps, 100 tbn, 100 tbc\n",
      "    Metadata:\n",
      "      encoder         : Lavc58.54.100 libx265\n",
      "    Side data:\n",
      "      cpb: bitrate max/min/avg: 0/0/0 buffer size: 0 vbv_delay: -1\n",
      "frame=218500 fps=212 q=-0.0 Lsize= 2378283kB time=00:36:24.98 bitrate=8916.7kbits/s speed=2.12x    \n",
      "video:2373299kB audio:0kB subtitle:0kB other streams:0kB global headers:0kB muxing overhead: 0.210039%\n",
      "x265 [info]: frame I:    874, Avg QP:22.99  kb/s: 87462.56\n",
      "x265 [info]: frame P:  54189, Avg QP:25.00  kb/s: 2631.88 \n",
      "x265 [info]: frame B: 163437, Avg QP:26.67  kb/s: 10542.13\n",
      "x265 [info]: consecutive B-frames: 0.0% 1.6% 0.0% 98.4% \n",
      "\n",
      "encoded 218500 frames in 1030.46s (212.04 fps), 8888.03 kb/s, Avg QP:26.24\n",
      "ffmpeg version 4.2.7-0ubuntu0.1 Copyright (c) 2000-2022 the FFmpeg developers\n",
      "  built with gcc 9 (Ubuntu 9.4.0-1ubuntu1~20.04.1)\n",
      "  configuration: --prefix=/usr --extra-version=0ubuntu0.1 --toolchain=hardened --libdir=/usr/lib/x86_64-linux-gnu --incdir=/usr/include/x86_64-linux-gnu --arch=amd64 --enable-gpl --disable-stripping --enable-avresample --disable-filter=resample --enable-avisynth --enable-gnutls --enable-ladspa --enable-libaom --enable-libass --enable-libbluray --enable-libbs2b --enable-libcaca --enable-libcdio --enable-libcodec2 --enable-libflite --enable-libfontconfig --enable-libfreetype --enable-libfribidi --enable-libgme --enable-libgsm --enable-libjack --enable-libmp3lame --enable-libmysofa --enable-libopenjpeg --enable-libopenmpt --enable-libopus --enable-libpulse --enable-librsvg --enable-librubberband --enable-libshine --enable-libsnappy --enable-libsoxr --enable-libspeex --enable-libssh --enable-libtheora --enable-libtwolame --enable-libvidstab --enable-libvorbis --enable-libvpx --enable-libwavpack --enable-libwebp --enable-libx265 --enable-libxml2 --enable-libxvid --enable-libzmq --enable-libzvbi --enable-lv2 --enable-omx --enable-openal --enable-opencl --enable-opengl --enable-sdl2 --enable-libdc1394 --enable-libdrm --enable-libiec61883 --enable-nvenc --enable-chromaprint --enable-frei0r --enable-libx264 --enable-shared\n",
      "  libavutil      56. 31.100 / 56. 31.100\n",
      "  libavcodec     58. 54.100 / 58. 54.100\n",
      "  libavformat    58. 29.100 / 58. 29.100\n",
      "  libavdevice    58.  8.100 / 58.  8.100\n",
      "  libavfilter     7. 57.100 /  7. 57.100\n",
      "  libavresample   4.  0.  0 /  4.  0.  0\n",
      "  libswscale      5.  5.100 /  5.  5.100\n",
      "  libswresample   3.  5.100 /  3.  5.100\n",
      "  libpostproc    55.  5.100 / 55.  5.100\n"
     ]
    },
    {
     "name": "stdout",
     "output_type": "stream",
     "text": [
      "converting 22-10-11-test-flicker/2022_11_3_markerset/BR.avi\n"
     ]
    },
    {
     "name": "stderr",
     "output_type": "stream",
     "text": [
      "Input #0, avi, from '/media/dattalab/starling_rec/recordings/22-10-11-test-flicker/2022_11_3_markerset/BR.avi':\n",
      "  Metadata:\n",
      "    encoder         : Lavf58.29.100\n",
      "  Duration: 00:36:25.00, start: 0.000000, bitrate: 173321 kb/s\n",
      "    Stream #0:0: Video: mjpeg (Baseline) (MJPG / 0x47504A4D), yuvj420p(pc, bt470bg/unknown/unknown), 1280x1024 [SAR 1:1 DAR 5:4], 173308 kb/s, 100 fps, 100 tbr, 100 tbn, 100 tbc\n",
      "Stream mapping:\n",
      "  Stream #0:0 -> #0:0 (mjpeg (native) -> hevc (libx265))\n",
      "Press [q] to stop, [?] for help\n",
      "x265 [info]: HEVC encoder version 3.2.1+1-b5c86a64bbbe\n",
      "x265 [info]: build info [Linux][GCC 9.3.0][64 bit] 8bit+10bit+12bit\n",
      "x265 [info]: using cpu capabilities: MMX2 SSE2Fast LZCNT SSSE3 SSE4.2 AVX FMA3 BMI2 AVX2\n",
      "x265 [info]: Main profile, Level-4.1 (Main tier)\n",
      "x265 [info]: Thread pool created using 24 threads\n",
      "x265 [info]: Slices                              : 1\n",
      "x265 [info]: frame threads / pool features       : 4 / wpp(32 rows)\n",
      "x265 [info]: Coding QT: max CU size, min CU size : 32 / 16\n",
      "x265 [info]: Residual QT: max TU size, max depth : 32 / 1 inter / 1 intra\n",
      "x265 [info]: ME / range / subpel / merge         : dia / 57 / 0 / 2\n",
      "x265 [info]: Keyframe min / max / scenecut / bias: 25 / 250 / 0 / 5.00\n",
      "x265 [info]: Lookahead / bframes / badapt        : 5 / 3 / 0\n",
      "x265 [info]: b-pyramid / weightp / weightb       : 1 / 0 / 0\n",
      "x265 [info]: References / ref-limit  cu / depth  : 1 / off / off\n",
      "x265 [info]: AQ: mode / str / qg-size / cu-tree  : 1 / 0.0 / 32 / 1\n",
      "x265 [info]: Rate Control / qCompress            : CRF-15.0 / 0.60\n",
      "x265 [info]: tools: rd=2 psy-rd=2.00 early-skip rskip tmvp fast-intra\n",
      "x265 [info]: tools: strong-intra-smoothing lslices=6 deblock\n",
      "Output #0, avi, to '/n/groups/datta/tim_sainburg/datasets/3D_keypoints/compressed/22-10-11-test-flicker/2022_11_3_markerset/BR.avi':\n",
      "  Metadata:\n",
      "    ISFT            : Lavf58.29.100\n",
      "    Stream #0:0: Video: hevc (libx265) (hvc1 / 0x31637668), yuvj420p(pc), 1280x1024 [SAR 1:1 DAR 5:4], q=2-31, 100 fps, 100 tbn, 100 tbc\n",
      "    Metadata:\n",
      "      encoder         : Lavc58.54.100 libx265\n",
      "    Side data:\n",
      "      cpb: bitrate max/min/avg: 0/0/0 buffer size: 0 vbv_delay: -1\n",
      "frame=218500 fps=212 q=-0.0 Lsize= 3123535kB time=00:36:24.98 bitrate=11710.9kbits/s speed=2.12x    \n",
      "video:3118892kB audio:0kB subtitle:0kB other streams:0kB global headers:0kB muxing overhead: 0.148857%\n",
      "x265 [info]: frame I:    874, Avg QP:22.98  kb/s: 79585.80\n",
      "x265 [info]: frame P:  54189, Avg QP:25.00  kb/s: 3095.29 \n",
      "x265 [info]: frame B: 163437, Avg QP:26.67  kb/s: 14167.77\n",
      "x265 [info]: consecutive B-frames: 0.0% 1.6% 0.0% 98.4% \n",
      "\n",
      "encoded 218500 frames in 1032.39s (211.64 fps), 11683.41 kb/s, Avg QP:26.24\n",
      "ffmpeg version 4.2.7-0ubuntu0.1 Copyright (c) 2000-2022 the FFmpeg developers\n",
      "  built with gcc 9 (Ubuntu 9.4.0-1ubuntu1~20.04.1)\n",
      "  configuration: --prefix=/usr --extra-version=0ubuntu0.1 --toolchain=hardened --libdir=/usr/lib/x86_64-linux-gnu --incdir=/usr/include/x86_64-linux-gnu --arch=amd64 --enable-gpl --disable-stripping --enable-avresample --disable-filter=resample --enable-avisynth --enable-gnutls --enable-ladspa --enable-libaom --enable-libass --enable-libbluray --enable-libbs2b --enable-libcaca --enable-libcdio --enable-libcodec2 --enable-libflite --enable-libfontconfig --enable-libfreetype --enable-libfribidi --enable-libgme --enable-libgsm --enable-libjack --enable-libmp3lame --enable-libmysofa --enable-libopenjpeg --enable-libopenmpt --enable-libopus --enable-libpulse --enable-librsvg --enable-librubberband --enable-libshine --enable-libsnappy --enable-libsoxr --enable-libspeex --enable-libssh --enable-libtheora --enable-libtwolame --enable-libvidstab --enable-libvorbis --enable-libvpx --enable-libwavpack --enable-libwebp --enable-libx265 --enable-libxml2 --enable-libxvid --enable-libzmq --enable-libzvbi --enable-lv2 --enable-omx --enable-openal --enable-opencl --enable-opengl --enable-sdl2 --enable-libdc1394 --enable-libdrm --enable-libiec61883 --enable-nvenc --enable-chromaprint --enable-frei0r --enable-libx264 --enable-shared\n",
      "  libavutil      56. 31.100 / 56. 31.100\n",
      "  libavcodec     58. 54.100 / 58. 54.100\n",
      "  libavformat    58. 29.100 / 58. 29.100\n",
      "  libavdevice    58.  8.100 / 58.  8.100\n",
      "  libavfilter     7. 57.100 /  7. 57.100\n",
      "  libavresample   4.  0.  0 /  4.  0.  0\n",
      "  libswscale      5.  5.100 /  5.  5.100\n",
      "  libswresample   3.  5.100 /  3.  5.100\n",
      "  libpostproc    55.  5.100 / 55.  5.100\n"
     ]
    },
    {
     "name": "stdout",
     "output_type": "stream",
     "text": [
      "converting 22-10-11-test-flicker/2022_11_3_markerset/BB.avi\n"
     ]
    },
    {
     "name": "stderr",
     "output_type": "stream",
     "text": [
      "Input #0, avi, from '/media/dattalab/starling_rec/recordings/22-10-11-test-flicker/2022_11_3_markerset/BB.avi':\n",
      "  Metadata:\n",
      "    encoder         : Lavf58.29.100\n",
      "  Duration: 00:36:25.00, start: 0.000000, bitrate: 172998 kb/s\n",
      "    Stream #0:0: Video: mjpeg (Baseline) (MJPG / 0x47504A4D), yuvj420p(pc, bt470bg/unknown/unknown), 1280x1024 [SAR 1:1 DAR 5:4], 172985 kb/s, 100 fps, 100 tbr, 100 tbn, 100 tbc\n",
      "Stream mapping:\n",
      "  Stream #0:0 -> #0:0 (mjpeg (native) -> hevc (libx265))\n",
      "Press [q] to stop, [?] for help\n",
      "x265 [info]: HEVC encoder version 3.2.1+1-b5c86a64bbbe\n",
      "x265 [info]: build info [Linux][GCC 9.3.0][64 bit] 8bit+10bit+12bit\n",
      "x265 [info]: using cpu capabilities: MMX2 SSE2Fast LZCNT SSSE3 SSE4.2 AVX FMA3 BMI2 AVX2\n",
      "x265 [info]: Main profile, Level-4.1 (Main tier)\n",
      "x265 [info]: Thread pool created using 24 threads\n",
      "x265 [info]: Slices                              : 1\n",
      "x265 [info]: frame threads / pool features       : 4 / wpp(32 rows)\n",
      "x265 [info]: Coding QT: max CU size, min CU size : 32 / 16\n",
      "x265 [info]: Residual QT: max TU size, max depth : 32 / 1 inter / 1 intra\n",
      "x265 [info]: ME / range / subpel / merge         : dia / 57 / 0 / 2\n",
      "x265 [info]: Keyframe min / max / scenecut / bias: 25 / 250 / 0 / 5.00\n",
      "x265 [info]: Lookahead / bframes / badapt        : 5 / 3 / 0\n",
      "x265 [info]: b-pyramid / weightp / weightb       : 1 / 0 / 0\n",
      "x265 [info]: References / ref-limit  cu / depth  : 1 / off / off\n",
      "x265 [info]: AQ: mode / str / qg-size / cu-tree  : 1 / 0.0 / 32 / 1\n",
      "x265 [info]: Rate Control / qCompress            : CRF-15.0 / 0.60\n",
      "x265 [info]: tools: rd=2 psy-rd=2.00 early-skip rskip tmvp fast-intra\n",
      "x265 [info]: tools: strong-intra-smoothing lslices=6 deblock\n",
      "Output #0, avi, to '/n/groups/datta/tim_sainburg/datasets/3D_keypoints/compressed/22-10-11-test-flicker/2022_11_3_markerset/BB.avi':\n",
      "  Metadata:\n",
      "    ISFT            : Lavf58.29.100\n",
      "    Stream #0:0: Video: hevc (libx265) (hvc1 / 0x31637668), yuvj420p(pc), 1280x1024 [SAR 1:1 DAR 5:4], q=2-31, 100 fps, 100 tbn, 100 tbc\n",
      "    Metadata:\n",
      "      encoder         : Lavc58.54.100 libx265\n",
      "    Side data:\n",
      "      cpb: bitrate max/min/avg: 0/0/0 buffer size: 0 vbv_delay: -1\n",
      "frame=218500 fps=238 q=-0.0 Lsize= 1412939kB time=00:36:24.98 bitrate=5297.4kbits/s speed=2.38x    \n",
      "video:1406899kB audio:0kB subtitle:0kB other streams:0kB global headers:0kB muxing overhead: 0.429344%\n",
      "x265 [info]: frame I:    874, Avg QP:23.00  kb/s: 86118.75\n",
      "x265 [info]: frame P:  54189, Avg QP:25.00  kb/s: 2222.97 \n",
      "x265 [info]: frame B: 163437, Avg QP:26.67  kb/s: 5840.98 \n",
      "x265 [info]: consecutive B-frames: 0.0% 1.6% 0.0% 98.4% \n",
      "\n",
      "encoded 218500 frames in 916.92s (238.30 fps), 5264.81 kb/s, Avg QP:26.24\n"
     ]
    },
    {
     "name": "stdout",
     "output_type": "stream",
     "text": [
      "converting 22-10-11-test-flicker/2022_11_3_markerset/BL.avi\n"
     ]
    },
    {
     "name": "stderr",
     "output_type": "stream",
     "text": [
      "ffmpeg version 4.2.7-0ubuntu0.1 Copyright (c) 2000-2022 the FFmpeg developers\n",
      "  built with gcc 9 (Ubuntu 9.4.0-1ubuntu1~20.04.1)\n",
      "  configuration: --prefix=/usr --extra-version=0ubuntu0.1 --toolchain=hardened --libdir=/usr/lib/x86_64-linux-gnu --incdir=/usr/include/x86_64-linux-gnu --arch=amd64 --enable-gpl --disable-stripping --enable-avresample --disable-filter=resample --enable-avisynth --enable-gnutls --enable-ladspa --enable-libaom --enable-libass --enable-libbluray --enable-libbs2b --enable-libcaca --enable-libcdio --enable-libcodec2 --enable-libflite --enable-libfontconfig --enable-libfreetype --enable-libfribidi --enable-libgme --enable-libgsm --enable-libjack --enable-libmp3lame --enable-libmysofa --enable-libopenjpeg --enable-libopenmpt --enable-libopus --enable-libpulse --enable-librsvg --enable-librubberband --enable-libshine --enable-libsnappy --enable-libsoxr --enable-libspeex --enable-libssh --enable-libtheora --enable-libtwolame --enable-libvidstab --enable-libvorbis --enable-libvpx --enable-libwavpack --enable-libwebp --enable-libx265 --enable-libxml2 --enable-libxvid --enable-libzmq --enable-libzvbi --enable-lv2 --enable-omx --enable-openal --enable-opencl --enable-opengl --enable-sdl2 --enable-libdc1394 --enable-libdrm --enable-libiec61883 --enable-nvenc --enable-chromaprint --enable-frei0r --enable-libx264 --enable-shared\n",
      "  libavutil      56. 31.100 / 56. 31.100\n",
      "  libavcodec     58. 54.100 / 58. 54.100\n",
      "  libavformat    58. 29.100 / 58. 29.100\n",
      "  libavdevice    58.  8.100 / 58.  8.100\n",
      "  libavfilter     7. 57.100 /  7. 57.100\n",
      "  libavresample   4.  0.  0 /  4.  0.  0\n",
      "  libswscale      5.  5.100 /  5.  5.100\n",
      "  libswresample   3.  5.100 /  3.  5.100\n",
      "  libpostproc    55.  5.100 / 55.  5.100\n",
      "Input #0, avi, from '/media/dattalab/starling_rec/recordings/22-10-11-test-flicker/2022_11_3_markerset/BL.avi':\n",
      "  Metadata:\n",
      "    encoder         : Lavf58.29.100\n",
      "  Duration: 00:36:25.00, start: 0.000000, bitrate: 187096 kb/s\n",
      "    Stream #0:0: Video: mjpeg (Baseline) (MJPG / 0x47504A4D), yuvj420p(pc, bt470bg/unknown/unknown), 1280x1024 [SAR 1:1 DAR 5:4], 187083 kb/s, 100 fps, 100 tbr, 100 tbn, 100 tbc\n",
      "Stream mapping:\n",
      "  Stream #0:0 -> #0:0 (mjpeg (native) -> hevc (libx265))\n",
      "Press [q] to stop, [?] for help\n",
      "x265 [info]: HEVC encoder version 3.2.1+1-b5c86a64bbbe\n",
      "x265 [info]: build info [Linux][GCC 9.3.0][64 bit] 8bit+10bit+12bit\n",
      "x265 [info]: using cpu capabilities: MMX2 SSE2Fast LZCNT SSSE3 SSE4.2 AVX FMA3 BMI2 AVX2\n",
      "x265 [info]: Main profile, Level-4.1 (Main tier)\n",
      "x265 [info]: Thread pool created using 24 threads\n",
      "x265 [info]: Slices                              : 1\n",
      "x265 [info]: frame threads / pool features       : 4 / wpp(32 rows)\n",
      "x265 [info]: Coding QT: max CU size, min CU size : 32 / 16\n",
      "x265 [info]: Residual QT: max TU size, max depth : 32 / 1 inter / 1 intra\n",
      "x265 [info]: ME / range / subpel / merge         : dia / 57 / 0 / 2\n",
      "x265 [info]: Keyframe min / max / scenecut / bias: 25 / 250 / 0 / 5.00\n",
      "x265 [info]: Lookahead / bframes / badapt        : 5 / 3 / 0\n",
      "x265 [info]: b-pyramid / weightp / weightb       : 1 / 0 / 0\n",
      "x265 [info]: References / ref-limit  cu / depth  : 1 / off / off\n",
      "x265 [info]: AQ: mode / str / qg-size / cu-tree  : 1 / 0.0 / 32 / 1\n",
      "x265 [info]: Rate Control / qCompress            : CRF-15.0 / 0.60\n",
      "x265 [info]: tools: rd=2 psy-rd=2.00 early-skip rskip tmvp fast-intra\n",
      "x265 [info]: tools: strong-intra-smoothing lslices=6 deblock\n",
      "Output #0, avi, to '/n/groups/datta/tim_sainburg/datasets/3D_keypoints/compressed/22-10-11-test-flicker/2022_11_3_markerset/BL.avi':\n",
      "  Metadata:\n",
      "    ISFT            : Lavf58.29.100\n",
      "    Stream #0:0: Video: hevc (libx265) (hvc1 / 0x31637668), yuvj420p(pc), 1280x1024 [SAR 1:1 DAR 5:4], q=2-31, 100 fps, 100 tbn, 100 tbc\n",
      "    Metadata:\n",
      "      encoder         : Lavc58.54.100 libx265\n",
      "    Side data:\n",
      "      cpb: bitrate max/min/avg: 0/0/0 buffer size: 0 vbv_delay: -1\n",
      "frame=218500 fps=207 q=-0.0 Lsize= 2512835kB time=00:36:24.98 bitrate=9421.2kbits/s speed=2.07x    \n",
      "video:2508058kB audio:0kB subtitle:0kB other streams:0kB global headers:0kB muxing overhead: 0.190436%\n",
      "x265 [info]: frame I:    874, Avg QP:23.00  kb/s: 60721.64\n",
      "x265 [info]: frame P:  54189, Avg QP:25.00  kb/s: 3194.16 \n",
      "x265 [info]: frame B: 163437, Avg QP:26.67  kb/s: 11174.16\n",
      "x265 [info]: consecutive B-frames: 0.0% 1.6% 0.0% 98.4% \n",
      "\n",
      "encoded 218500 frames in 1055.62s (206.99 fps), 9393.28 kb/s, Avg QP:26.24\n",
      "ffmpeg version 4.2.7-0ubuntu0.1 Copyright (c) 2000-2022 the FFmpeg developers\n",
      "  built with gcc 9 (Ubuntu 9.4.0-1ubuntu1~20.04.1)\n",
      "  configuration: --prefix=/usr --extra-version=0ubuntu0.1 --toolchain=hardened --libdir=/usr/lib/x86_64-linux-gnu --incdir=/usr/include/x86_64-linux-gnu --arch=amd64 --enable-gpl --disable-stripping --enable-avresample --disable-filter=resample --enable-avisynth --enable-gnutls --enable-ladspa --enable-libaom --enable-libass --enable-libbluray --enable-libbs2b --enable-libcaca --enable-libcdio --enable-libcodec2 --enable-libflite --enable-libfontconfig --enable-libfreetype --enable-libfribidi --enable-libgme --enable-libgsm --enable-libjack --enable-libmp3lame --enable-libmysofa --enable-libopenjpeg --enable-libopenmpt --enable-libopus --enable-libpulse --enable-librsvg --enable-librubberband --enable-libshine --enable-libsnappy --enable-libsoxr --enable-libspeex --enable-libssh --enable-libtheora --enable-libtwolame --enable-libvidstab --enable-libvorbis --enable-libvpx --enable-libwavpack --enable-libwebp --enable-libx265 --enable-libxml2 --enable-libxvid --enable-libzmq --enable-libzvbi --enable-lv2 --enable-omx --enable-openal --enable-opencl --enable-opengl --enable-sdl2 --enable-libdc1394 --enable-libdrm --enable-libiec61883 --enable-nvenc --enable-chromaprint --enable-frei0r --enable-libx264 --enable-shared\n",
      "  libavutil      56. 31.100 / 56. 31.100\n",
      "  libavcodec     58. 54.100 / 58. 54.100\n",
      "  libavformat    58. 29.100 / 58. 29.100\n",
      "  libavdevice    58.  8.100 / 58.  8.100\n",
      "  libavfilter     7. 57.100 /  7. 57.100\n",
      "  libavresample   4.  0.  0 /  4.  0.  0\n",
      "  libswscale      5.  5.100 /  5.  5.100\n",
      "  libswresample   3.  5.100 /  3.  5.100\n",
      "  libpostproc    55.  5.100 / 55.  5.100\n"
     ]
    },
    {
     "name": "stdout",
     "output_type": "stream",
     "text": [
      "converting 22-10-11-test-flicker/2022_11_3_markerset/FB.avi\n"
     ]
    },
    {
     "name": "stderr",
     "output_type": "stream",
     "text": [
      "Input #0, avi, from '/media/dattalab/starling_rec/recordings/22-10-11-test-flicker/2022_11_3_markerset/FB.avi':\n",
      "  Metadata:\n",
      "    encoder         : Lavf58.29.100\n",
      "  Duration: 00:36:25.00, start: 0.000000, bitrate: 188602 kb/s\n",
      "    Stream #0:0: Video: mjpeg (Baseline) (MJPG / 0x47504A4D), yuvj420p(pc, bt470bg/unknown/unknown), 1280x1024 [SAR 1:1 DAR 5:4], 188589 kb/s, 100 fps, 100 tbr, 100 tbn, 100 tbc\n",
      "Stream mapping:\n",
      "  Stream #0:0 -> #0:0 (mjpeg (native) -> hevc (libx265))\n",
      "Press [q] to stop, [?] for help\n",
      "x265 [info]: HEVC encoder version 3.2.1+1-b5c86a64bbbe\n",
      "x265 [info]: build info [Linux][GCC 9.3.0][64 bit] 8bit+10bit+12bit\n",
      "x265 [info]: using cpu capabilities: MMX2 SSE2Fast LZCNT SSSE3 SSE4.2 AVX FMA3 BMI2 AVX2\n",
      "x265 [info]: Main profile, Level-4.1 (Main tier)\n",
      "x265 [info]: Thread pool created using 24 threads\n",
      "x265 [info]: Slices                              : 1\n",
      "x265 [info]: frame threads / pool features       : 4 / wpp(32 rows)\n",
      "x265 [info]: Coding QT: max CU size, min CU size : 32 / 16\n",
      "x265 [info]: Residual QT: max TU size, max depth : 32 / 1 inter / 1 intra\n",
      "x265 [info]: ME / range / subpel / merge         : dia / 57 / 0 / 2\n",
      "x265 [info]: Keyframe min / max / scenecut / bias: 25 / 250 / 0 / 5.00\n",
      "x265 [info]: Lookahead / bframes / badapt        : 5 / 3 / 0\n",
      "x265 [info]: b-pyramid / weightp / weightb       : 1 / 0 / 0\n",
      "x265 [info]: References / ref-limit  cu / depth  : 1 / off / off\n",
      "x265 [info]: AQ: mode / str / qg-size / cu-tree  : 1 / 0.0 / 32 / 1\n",
      "x265 [info]: Rate Control / qCompress            : CRF-15.0 / 0.60\n",
      "x265 [info]: tools: rd=2 psy-rd=2.00 early-skip rskip tmvp fast-intra\n",
      "x265 [info]: tools: strong-intra-smoothing lslices=6 deblock\n",
      "Output #0, avi, to '/n/groups/datta/tim_sainburg/datasets/3D_keypoints/compressed/22-10-11-test-flicker/2022_11_3_markerset/FB.avi':\n",
      "  Metadata:\n",
      "    ISFT            : Lavf58.29.100\n",
      "    Stream #0:0: Video: hevc (libx265) (hvc1 / 0x31637668), yuvj420p(pc), 1280x1024 [SAR 1:1 DAR 5:4], q=2-31, 100 fps, 100 tbn, 100 tbc\n",
      "    Metadata:\n",
      "      encoder         : Lavc58.54.100 libx265\n",
      "    Side data:\n",
      "      cpb: bitrate max/min/avg: 0/0/0 buffer size: 0 vbv_delay: -1\n",
      "frame=218500 fps=214 q=-0.0 Lsize= 2595509kB time=00:36:24.98 bitrate=9731.2kbits/s speed=2.14x    \n",
      "video:2590652kB audio:0kB subtitle:0kB other streams:0kB global headers:0kB muxing overhead: 0.187471%\n",
      "x265 [info]: frame I:    874, Avg QP:23.00  kb/s: 99793.46\n",
      "x265 [info]: frame P:  54189, Avg QP:25.00  kb/s: 2224.43 \n",
      "x265 [info]: frame B: 163437, Avg QP:26.67  kb/s: 11700.73\n",
      "x265 [info]: consecutive B-frames: 0.0% 1.6% 0.0% 98.4% \n",
      "\n",
      "encoded 218500 frames in 1019.24s (214.38 fps), 9702.93 kb/s, Avg QP:26.24\n",
      "ffmpeg version 4.2.7-0ubuntu0.1 Copyright (c) 2000-2022 the FFmpeg developers\n",
      "  built with gcc 9 (Ubuntu 9.4.0-1ubuntu1~20.04.1)\n",
      "  configuration: --prefix=/usr --extra-version=0ubuntu0.1 --toolchain=hardened --libdir=/usr/lib/x86_64-linux-gnu --incdir=/usr/include/x86_64-linux-gnu --arch=amd64 --enable-gpl --disable-stripping --enable-avresample --disable-filter=resample --enable-avisynth --enable-gnutls --enable-ladspa --enable-libaom --enable-libass --enable-libbluray --enable-libbs2b --enable-libcaca --enable-libcdio --enable-libcodec2 --enable-libflite --enable-libfontconfig --enable-libfreetype --enable-libfribidi --enable-libgme --enable-libgsm --enable-libjack --enable-libmp3lame --enable-libmysofa --enable-libopenjpeg --enable-libopenmpt --enable-libopus --enable-libpulse --enable-librsvg --enable-librubberband --enable-libshine --enable-libsnappy --enable-libsoxr --enable-libspeex --enable-libssh --enable-libtheora --enable-libtwolame --enable-libvidstab --enable-libvorbis --enable-libvpx --enable-libwavpack --enable-libwebp --enable-libx265 --enable-libxml2 --enable-libxvid --enable-libzmq --enable-libzvbi --enable-lv2 --enable-omx --enable-openal --enable-opencl --enable-opengl --enable-sdl2 --enable-libdc1394 --enable-libdrm --enable-libiec61883 --enable-nvenc --enable-chromaprint --enable-frei0r --enable-libx264 --enable-shared\n",
      "  libavutil      56. 31.100 / 56. 31.100\n",
      "  libavcodec     58. 54.100 / 58. 54.100\n",
      "  libavformat    58. 29.100 / 58. 29.100\n",
      "  libavdevice    58.  8.100 / 58.  8.100\n",
      "  libavfilter     7. 57.100 /  7. 57.100\n",
      "  libavresample   4.  0.  0 /  4.  0.  0\n",
      "  libswscale      5.  5.100 /  5.  5.100\n",
      "  libswresample   3.  5.100 /  3.  5.100\n",
      "  libpostproc    55.  5.100 / 55.  5.100\n"
     ]
    },
    {
     "name": "stdout",
     "output_type": "stream",
     "text": [
      "converting 22-10-11-test-flicker/2022_11_3_markerset/FR.avi\n"
     ]
    },
    {
     "name": "stderr",
     "output_type": "stream",
     "text": [
      "Input #0, avi, from '/media/dattalab/starling_rec/recordings/22-10-11-test-flicker/2022_11_3_markerset/FR.avi':\n",
      "  Metadata:\n",
      "    encoder         : Lavf58.29.100\n",
      "  Duration: 00:36:25.00, start: 0.000000, bitrate: 195909 kb/s\n",
      "    Stream #0:0: Video: mjpeg (Baseline) (MJPG / 0x47504A4D), yuvj420p(pc, bt470bg/unknown/unknown), 1280x1024 [SAR 1:1 DAR 5:4], 195897 kb/s, 100 fps, 100 tbr, 100 tbn, 100 tbc\n",
      "Stream mapping:\n",
      "  Stream #0:0 -> #0:0 (mjpeg (native) -> hevc (libx265))\n",
      "Press [q] to stop, [?] for help\n",
      "x265 [info]: HEVC encoder version 3.2.1+1-b5c86a64bbbe\n",
      "x265 [info]: build info [Linux][GCC 9.3.0][64 bit] 8bit+10bit+12bit\n",
      "x265 [info]: using cpu capabilities: MMX2 SSE2Fast LZCNT SSSE3 SSE4.2 AVX FMA3 BMI2 AVX2\n",
      "x265 [info]: Main profile, Level-4.1 (Main tier)\n",
      "x265 [info]: Thread pool created using 24 threads\n",
      "x265 [info]: Slices                              : 1\n",
      "x265 [info]: frame threads / pool features       : 4 / wpp(32 rows)\n",
      "x265 [info]: Coding QT: max CU size, min CU size : 32 / 16\n",
      "x265 [info]: Residual QT: max TU size, max depth : 32 / 1 inter / 1 intra\n",
      "x265 [info]: ME / range / subpel / merge         : dia / 57 / 0 / 2\n",
      "x265 [info]: Keyframe min / max / scenecut / bias: 25 / 250 / 0 / 5.00\n",
      "x265 [info]: Lookahead / bframes / badapt        : 5 / 3 / 0\n",
      "x265 [info]: b-pyramid / weightp / weightb       : 1 / 0 / 0\n",
      "x265 [info]: References / ref-limit  cu / depth  : 1 / off / off\n",
      "x265 [info]: AQ: mode / str / qg-size / cu-tree  : 1 / 0.0 / 32 / 1\n",
      "x265 [info]: Rate Control / qCompress            : CRF-15.0 / 0.60\n",
      "x265 [info]: tools: rd=2 psy-rd=2.00 early-skip rskip tmvp fast-intra\n",
      "x265 [info]: tools: strong-intra-smoothing lslices=6 deblock\n",
      "Output #0, avi, to '/n/groups/datta/tim_sainburg/datasets/3D_keypoints/compressed/22-10-11-test-flicker/2022_11_3_markerset/FR.avi':\n",
      "  Metadata:\n",
      "    ISFT            : Lavf58.29.100\n",
      "    Stream #0:0: Video: hevc (libx265) (hvc1 / 0x31637668), yuvj420p(pc), 1280x1024 [SAR 1:1 DAR 5:4], q=2-31, 100 fps, 100 tbn, 100 tbc\n",
      "    Metadata:\n",
      "      encoder         : Lavc58.54.100 libx265\n",
      "    Side data:\n",
      "      cpb: bitrate max/min/avg: 0/0/0 buffer size: 0 vbv_delay: -1\n",
      "frame=218500 fps=206 q=-0.0 Lsize= 2570210kB time=00:36:24.98 bitrate=9636.3kbits/s speed=2.06x    \n",
      "video:2565365kB audio:0kB subtitle:0kB other streams:0kB global headers:0kB muxing overhead: 0.188836%\n",
      "x265 [info]: frame I:    874, Avg QP:23.00  kb/s: 77159.01\n",
      "x265 [info]: frame P:  54189, Avg QP:25.00  kb/s: 2898.19 \n",
      "x265 [info]: frame B: 163437, Avg QP:26.67  kb/s: 11471.63\n",
      "x265 [info]: consecutive B-frames: 0.0% 1.6% 0.0% 98.4% \n",
      "\n",
      "encoded 218500 frames in 1062.81s (205.59 fps), 9608.13 kb/s, Avg QP:26.24\n"
     ]
    },
    {
     "name": "stdout",
     "output_type": "stream",
     "text": [
      "converting 22-10-11-test-flicker/2022_11_3_markerset/FL.avi\n"
     ]
    },
    {
     "name": "stderr",
     "output_type": "stream",
     "text": [
      "ffmpeg version 4.2.7-0ubuntu0.1 Copyright (c) 2000-2022 the FFmpeg developers\n",
      "  built with gcc 9 (Ubuntu 9.4.0-1ubuntu1~20.04.1)\n",
      "  configuration: --prefix=/usr --extra-version=0ubuntu0.1 --toolchain=hardened --libdir=/usr/lib/x86_64-linux-gnu --incdir=/usr/include/x86_64-linux-gnu --arch=amd64 --enable-gpl --disable-stripping --enable-avresample --disable-filter=resample --enable-avisynth --enable-gnutls --enable-ladspa --enable-libaom --enable-libass --enable-libbluray --enable-libbs2b --enable-libcaca --enable-libcdio --enable-libcodec2 --enable-libflite --enable-libfontconfig --enable-libfreetype --enable-libfribidi --enable-libgme --enable-libgsm --enable-libjack --enable-libmp3lame --enable-libmysofa --enable-libopenjpeg --enable-libopenmpt --enable-libopus --enable-libpulse --enable-librsvg --enable-librubberband --enable-libshine --enable-libsnappy --enable-libsoxr --enable-libspeex --enable-libssh --enable-libtheora --enable-libtwolame --enable-libvidstab --enable-libvorbis --enable-libvpx --enable-libwavpack --enable-libwebp --enable-libx265 --enable-libxml2 --enable-libxvid --enable-libzmq --enable-libzvbi --enable-lv2 --enable-omx --enable-openal --enable-opencl --enable-opengl --enable-sdl2 --enable-libdc1394 --enable-libdrm --enable-libiec61883 --enable-nvenc --enable-chromaprint --enable-frei0r --enable-libx264 --enable-shared\n",
      "  libavutil      56. 31.100 / 56. 31.100\n",
      "  libavcodec     58. 54.100 / 58. 54.100\n",
      "  libavformat    58. 29.100 / 58. 29.100\n",
      "  libavdevice    58.  8.100 / 58.  8.100\n",
      "  libavfilter     7. 57.100 /  7. 57.100\n",
      "  libavresample   4.  0.  0 /  4.  0.  0\n",
      "  libswscale      5.  5.100 /  5.  5.100\n",
      "  libswresample   3.  5.100 /  3.  5.100\n",
      "  libpostproc    55.  5.100 / 55.  5.100\n",
      "Input #0, avi, from '/media/dattalab/starling_rec/recordings/22-10-11-test-flicker/2022_11_3_markerset/FL.avi':\n",
      "  Metadata:\n",
      "    encoder         : Lavf58.29.100\n",
      "  Duration: 00:36:25.00, start: 0.000000, bitrate: 197197 kb/s\n",
      "    Stream #0:0: Video: mjpeg (Baseline) (MJPG / 0x47504A4D), yuvj420p(pc, bt470bg/unknown/unknown), 1280x1024 [SAR 1:1 DAR 5:4], 197184 kb/s, 100 fps, 100 tbr, 100 tbn, 100 tbc\n",
      "Stream mapping:\n",
      "  Stream #0:0 -> #0:0 (mjpeg (native) -> hevc (libx265))\n",
      "Press [q] to stop, [?] for help\n",
      "x265 [info]: HEVC encoder version 3.2.1+1-b5c86a64bbbe\n",
      "x265 [info]: build info [Linux][GCC 9.3.0][64 bit] 8bit+10bit+12bit\n",
      "x265 [info]: using cpu capabilities: MMX2 SSE2Fast LZCNT SSSE3 SSE4.2 AVX FMA3 BMI2 AVX2\n",
      "x265 [info]: Main profile, Level-4.1 (Main tier)\n",
      "x265 [info]: Thread pool created using 24 threads\n",
      "x265 [info]: Slices                              : 1\n",
      "x265 [info]: frame threads / pool features       : 4 / wpp(32 rows)\n",
      "x265 [info]: Coding QT: max CU size, min CU size : 32 / 16\n",
      "x265 [info]: Residual QT: max TU size, max depth : 32 / 1 inter / 1 intra\n",
      "x265 [info]: ME / range / subpel / merge         : dia / 57 / 0 / 2\n",
      "x265 [info]: Keyframe min / max / scenecut / bias: 25 / 250 / 0 / 5.00\n",
      "x265 [info]: Lookahead / bframes / badapt        : 5 / 3 / 0\n",
      "x265 [info]: b-pyramid / weightp / weightb       : 1 / 0 / 0\n",
      "x265 [info]: References / ref-limit  cu / depth  : 1 / off / off\n",
      "x265 [info]: AQ: mode / str / qg-size / cu-tree  : 1 / 0.0 / 32 / 1\n",
      "x265 [info]: Rate Control / qCompress            : CRF-15.0 / 0.60\n",
      "x265 [info]: tools: rd=2 psy-rd=2.00 early-skip rskip tmvp fast-intra\n",
      "x265 [info]: tools: strong-intra-smoothing lslices=6 deblock\n",
      "Output #0, avi, to '/n/groups/datta/tim_sainburg/datasets/3D_keypoints/compressed/22-10-11-test-flicker/2022_11_3_markerset/FL.avi':\n",
      "  Metadata:\n",
      "    ISFT            : Lavf58.29.100\n",
      "    Stream #0:0: Video: hevc (libx265) (hvc1 / 0x31637668), yuvj420p(pc), 1280x1024 [SAR 1:1 DAR 5:4], q=2-31, 100 fps, 100 tbn, 100 tbc\n",
      "    Metadata:\n",
      "      encoder         : Lavc58.54.100 libx265\n",
      "    Side data:\n",
      "      cpb: bitrate max/min/avg: 0/0/0 buffer size: 0 vbv_delay: -1\n",
      "frame=218500 fps=207 q=-0.0 Lsize= 1846857kB time=00:36:24.98 bitrate=6924.3kbits/s speed=2.07x    \n",
      "video:1841432kB audio:0kB subtitle:0kB other streams:0kB global headers:0kB muxing overhead: 0.294603%\n",
      "x265 [info]: frame I:    874, Avg QP:23.00  kb/s: 60758.21\n",
      "x265 [info]: frame P:  54189, Avg QP:25.00  kb/s: 1707.50 \n",
      "x265 [info]: frame B: 163437, Avg QP:26.67  kb/s: 8325.53 \n",
      "x265 [info]: consecutive B-frames: 0.0% 1.6% 0.0% 98.4% \n",
      "\n",
      "encoded 218500 frames in 1055.58s (207.00 fps), 6893.96 kb/s, Avg QP:26.24\n",
      "ffmpeg version 4.2.7-0ubuntu0.1 Copyright (c) 2000-2022 the FFmpeg developers\n",
      "  built with gcc 9 (Ubuntu 9.4.0-1ubuntu1~20.04.1)\n",
      "  configuration: --prefix=/usr --extra-version=0ubuntu0.1 --toolchain=hardened --libdir=/usr/lib/x86_64-linux-gnu --incdir=/usr/include/x86_64-linux-gnu --arch=amd64 --enable-gpl --disable-stripping --enable-avresample --disable-filter=resample --enable-avisynth --enable-gnutls --enable-ladspa --enable-libaom --enable-libass --enable-libbluray --enable-libbs2b --enable-libcaca --enable-libcdio --enable-libcodec2 --enable-libflite --enable-libfontconfig --enable-libfreetype --enable-libfribidi --enable-libgme --enable-libgsm --enable-libjack --enable-libmp3lame --enable-libmysofa --enable-libopenjpeg --enable-libopenmpt --enable-libopus --enable-libpulse --enable-librsvg --enable-librubberband --enable-libshine --enable-libsnappy --enable-libsoxr --enable-libspeex --enable-libssh --enable-libtheora --enable-libtwolame --enable-libvidstab --enable-libvorbis --enable-libvpx --enable-libwavpack --enable-libwebp --enable-libx265 --enable-libxml2 --enable-libxvid --enable-libzmq --enable-libzvbi --enable-lv2 --enable-omx --enable-openal --enable-opencl --enable-opengl --enable-sdl2 --enable-libdc1394 --enable-libdrm --enable-libiec61883 --enable-nvenc --enable-chromaprint --enable-frei0r --enable-libx264 --enable-shared\n",
      "  libavutil      56. 31.100 / 56. 31.100\n",
      "  libavcodec     58. 54.100 / 58. 54.100\n",
      "  libavformat    58. 29.100 / 58. 29.100\n",
      "  libavdevice    58.  8.100 / 58.  8.100\n",
      "  libavfilter     7. 57.100 /  7. 57.100\n",
      "  libavresample   4.  0.  0 /  4.  0.  0\n",
      "  libswscale      5.  5.100 /  5.  5.100\n",
      "  libswresample   3.  5.100 /  3.  5.100\n",
      "  libpostproc    55.  5.100 / 55.  5.100\n"
     ]
    },
    {
     "name": "stdout",
     "output_type": "stream",
     "text": [
      "Video already exists, skipping \n",
      "\t 22-10-11-test-flicker/UVFlashingLightsTest_11-1_M2/T.avi\n",
      "Video already exists, skipping \n",
      "\t 22-10-11-test-flicker/UVFlashingLightsTest_11-1_M2/BR.avi\n",
      "Video already exists, skipping \n",
      "\t 22-10-11-test-flicker/UVFlashingLightsTest_11-1_M2/BB.avi\n",
      "Video already exists, skipping \n",
      "\t 22-10-11-test-flicker/UVFlashingLightsTest_11-1_M2/BL.avi\n",
      "Video already exists, skipping \n",
      "\t 22-10-11-test-flicker/UVFlashingLightsTest_11-1_M2/FB.avi\n",
      "Video already exists, skipping \n",
      "\t 22-10-11-test-flicker/UVFlashingLightsTest_11-1_M2/FR.avi\n",
      "Video already exists, skipping \n",
      "\t 22-10-11-test-flicker/UVFlashingLightsTest_11-1_M2/FL.avi\n",
      "Video already exists, skipping \n",
      "\t 22-10-11-test-flicker/UVLightsTest_11-1_M1/T.avi\n",
      "Video already exists, skipping \n",
      "\t 22-10-11-test-flicker/UVLightsTest_11-1_M1/BR.avi\n",
      "Video already exists, skipping \n",
      "\t 22-10-11-test-flicker/UVLightsTest_11-1_M1/BB.avi\n",
      "Video already exists, skipping \n",
      "\t 22-10-11-test-flicker/UVLightsTest_11-1_M1/BL.avi\n",
      "Video already exists, skipping \n",
      "\t 22-10-11-test-flicker/UVLightsTest_11-1_M1/FB.avi\n",
      "Video already exists, skipping \n",
      "\t 22-10-11-test-flicker/UVLightsTest_11-1_M1/FR.avi\n",
      "Video already exists, skipping \n",
      "\t 22-10-11-test-flicker/UVLightsTest_11-1_M1/FL.avi\n",
      "Video already exists, skipping \n",
      "\t 22-10-11-test-flicker/ketamine-test-2h/T.avi\n",
      "Video already exists, skipping \n",
      "\t 22-10-11-test-flicker/ketamine-test-2h/BR.avi\n",
      "Video already exists, skipping \n",
      "\t 22-10-11-test-flicker/ketamine-test-2h/BB.avi\n",
      "Video already exists, skipping \n",
      "\t 22-10-11-test-flicker/ketamine-test-2h/BL.avi\n",
      "Video already exists, skipping \n",
      "\t 22-10-11-test-flicker/ketamine-test-2h/FB.avi\n",
      "Video already exists, skipping \n",
      "\t 22-10-11-test-flicker/ketamine-test-2h/FR.avi\n",
      "Video already exists, skipping \n",
      "\t 22-10-11-test-flicker/ketamine-test-2h/FL.avi\n",
      "Video already exists, skipping \n",
      "\t 22-10-11-test-flicker/ketamine-5m/T.avi\n",
      "Video already exists, skipping \n",
      "\t 22-10-11-test-flicker/ketamine-5m/BR.avi\n",
      "Video already exists, skipping \n",
      "\t 22-10-11-test-flicker/ketamine-5m/BB.avi\n",
      "Video already exists, skipping \n",
      "\t 22-10-11-test-flicker/ketamine-5m/BL.avi\n",
      "converting 22-10-11-test-flicker/ketamine-5m/FB.avi\n"
     ]
    },
    {
     "name": "stderr",
     "output_type": "stream",
     "text": [
      "Input #0, avi, from '/media/dattalab/starling_rec/recordings/22-10-11-test-flicker/ketamine-5m/FB.avi':\n",
      "  Metadata:\n",
      "    encoder         : Lavf58.29.100\n",
      "  Duration: 00:02:45.84, start: 0.000000, bitrate: 68030 kb/s\n",
      "    Stream #0:0: Video: mjpeg (Baseline) (MJPG / 0x47504A4D), yuvj420p(pc, bt470bg/unknown/unknown), 1280x1024, 68008 kb/s, 100 fps, 100 tbr, 100 tbn, 100 tbc\n",
      "Stream mapping:\n",
      "  Stream #0:0 -> #0:0 (mjpeg (native) -> hevc (libx265))\n",
      "Press [q] to stop, [?] for help\n",
      "x265 [info]: HEVC encoder version 3.2.1+1-b5c86a64bbbe\n",
      "x265 [info]: build info [Linux][GCC 9.3.0][64 bit] 8bit+10bit+12bit\n",
      "x265 [info]: using cpu capabilities: MMX2 SSE2Fast LZCNT SSSE3 SSE4.2 AVX FMA3 BMI2 AVX2\n",
      "x265 [info]: Main profile, Level-4.1 (Main tier)\n",
      "x265 [info]: Thread pool created using 24 threads\n",
      "x265 [info]: Slices                              : 1\n",
      "x265 [info]: frame threads / pool features       : 4 / wpp(32 rows)\n",
      "x265 [info]: Coding QT: max CU size, min CU size : 32 / 16\n",
      "x265 [info]: Residual QT: max TU size, max depth : 32 / 1 inter / 1 intra\n",
      "x265 [info]: ME / range / subpel / merge         : dia / 57 / 0 / 2\n",
      "x265 [info]: Keyframe min / max / scenecut / bias: 25 / 250 / 0 / 5.00\n",
      "x265 [info]: Lookahead / bframes / badapt        : 5 / 3 / 0\n",
      "x265 [info]: b-pyramid / weightp / weightb       : 1 / 0 / 0\n",
      "x265 [info]: References / ref-limit  cu / depth  : 1 / off / off\n",
      "x265 [info]: AQ: mode / str / qg-size / cu-tree  : 1 / 0.0 / 32 / 1\n",
      "x265 [info]: Rate Control / qCompress            : CRF-15.0 / 0.60\n",
      "x265 [info]: tools: rd=2 psy-rd=2.00 early-skip rskip tmvp fast-intra\n",
      "x265 [info]: tools: strong-intra-smoothing lslices=6 deblock\n",
      "Output #0, avi, to '/n/groups/datta/tim_sainburg/datasets/3D_keypoints/compressed/22-10-11-test-flicker/ketamine-5m/FB.avi':\n",
      "  Metadata:\n",
      "    ISFT            : Lavf58.29.100\n",
      "    Stream #0:0: Video: hevc (libx265) (hvc1 / 0x31637668), yuvj420p(pc), 1280x1024, q=2-31, 100 fps, 100 tbn, 100 tbc\n",
      "    Metadata:\n",
      "      encoder         : Lavc58.54.100 libx265\n",
      "    Side data:\n",
      "      cpb: bitrate max/min/avg: 0/0/0 buffer size: 0 vbv_delay: -1\n",
      "frame=16543 fps=257 q=-0.0 size=  339206kB time=00:02:45.27 bitrate=16813.5kbits/s speed=2.57x    \r"
     ]
    },
    {
     "name": "stdout",
     "output_type": "stream",
     "text": [
      "Video already exists, skipping \n",
      "\t 22-10-11-test-flicker/ketamine-5m/FR.avi\n",
      "Video already exists, skipping \n",
      "\t 22-10-11-test-flicker/ketamine-5m/FL.avi\n",
      "Video already exists, skipping \n",
      "\t 22-10-11-test-flicker/UVLightsTest_11-1_Mouse1/T.avi\n",
      "Video already exists, skipping \n",
      "\t 22-10-11-test-flicker/UVLightsTest_11-1_Mouse1/BR.avi\n",
      "Video already exists, skipping \n",
      "\t 22-10-11-test-flicker/UVLightsTest_11-1_Mouse1/BB.avi\n",
      "Video already exists, skipping \n",
      "\t 22-10-11-test-flicker/UVLightsTest_11-1_Mouse1/BL.avi\n",
      "Video already exists, skipping \n",
      "\t 22-10-11-test-flicker/UVLightsTest_11-1_Mouse1/FB.avi\n",
      "Video already exists, skipping \n",
      "\t 22-10-11-test-flicker/UVLightsTest_11-1_Mouse1/FR.avi\n",
      "Video already exists, skipping \n",
      "\t 22-10-11-test-flicker/UVLightsTest_11-1_Mouse1/FL.avi\n",
      "Video already exists, skipping \n",
      "\t 22-10-11-test-flicker/UVFlashingLightsTest_11-1_M1/T.avi\n",
      "Video already exists, skipping \n",
      "\t 22-10-11-test-flicker/UVFlashingLightsTest_11-1_M1/BR.avi\n",
      "Video already exists, skipping \n",
      "\t 22-10-11-test-flicker/UVFlashingLightsTest_11-1_M1/BB.avi\n",
      "Video already exists, skipping \n",
      "\t 22-10-11-test-flicker/UVFlashingLightsTest_11-1_M1/BL.avi\n",
      "Video already exists, skipping \n",
      "\t 22-10-11-test-flicker/UVFlashingLightsTest_11-1_M1/FB.avi\n",
      "Video already exists, skipping \n",
      "\t 22-10-11-test-flicker/UVFlashingLightsTest_11-1_M1/FR.avi\n",
      "Video already exists, skipping \n",
      "\t 22-10-11-test-flicker/UVFlashingLightsTest_11-1_M1/FL.avi\n"
     ]
    },
    {
     "name": "stderr",
     "output_type": "stream",
     "text": [
      "frame=16584 fps=257 q=-0.0 Lsize=  339969kB time=00:02:45.82 bitrate=16795.5kbits/s speed=2.57x    \n",
      "video:339566kB audio:0kB subtitle:0kB other streams:0kB global headers:0kB muxing overhead: 0.118504%\n",
      "x265 [info]: frame I:     67, Avg QP:22.51  kb/s: 53932.32\n",
      "x265 [info]: frame P:   4756, Avg QP:24.94  kb/s: 2059.09 \n",
      "x265 [info]: frame B:  11761, Avg QP:26.63  kb/s: 22498.10\n",
      "x265 [info]: consecutive B-frames: 0.3% 9.7% 35.8% 54.2% \n",
      "\n",
      "encoded 16584 frames in 64.51s (257.09 fps), 16763.55 kb/s, Avg QP:26.13\n"
     ]
    }
   ],
   "source": [
    "for video in tqdm(videos_to_convert):\n",
    "    try:\n",
    "        # get the name to save for the output folder\n",
    "        number_of_parents_to_base = np.where([i == video_folder for i in list(video.parents)])[0][0]\n",
    "        sub_folders = video.parts[len(video.parts)-1-number_of_parents_to_base:-1]\n",
    "        video_out = output_folder\n",
    "        for i in sub_folders:\n",
    "            video_out = video_out / i\n",
    "        video_out = video_out / video.name\n",
    "\n",
    "        ensure_dir(video_out)\n",
    "\n",
    "        if video_out.exists():\n",
    "            print('Video already exists, skipping \\n\\t {}'.format('/'.join(video.parts[-3:])))\n",
    "            \n",
    "            if delete_local_video:\n",
    "                os.remove(video)\n",
    "            \n",
    "            continue\n",
    "\n",
    "        print('converting {}'.format('/'.join(video.parts[-3:])))\n",
    "        #continue\n",
    "        # https://www.programcreek.com/python/example/117479/ffmpeg.output\n",
    "\n",
    "        flip_video = video.stem in cameras_to_mirror\n",
    "\n",
    "        ffmpeg_command = (\n",
    "            ffmpeg\n",
    "            .input(video.as_posix())\n",
    "\n",
    "        )\n",
    "        if flip_video:\n",
    "            ffmpeg_command = ffmpeg_command.video.hflip()\n",
    "        ffmpeg_command = (\n",
    "            ffmpeg_command.output(\n",
    "                video_out.as_posix(),\n",
    "                vcodec = \"libx265\", \n",
    "                crf = crf, \n",
    "                vtag=\"hvc1\", \n",
    "                preset=\"ultrafast\")\n",
    "        )\n",
    "        out, _ = ffmpeg_command.run()\n",
    "        \n",
    "        \n",
    "        # if out is successful \n",
    "        if delete_local_video:\n",
    "            os.remove(video)\n",
    "        \n",
    "        #out, _ = (\n",
    "        #    ffmpeg\n",
    "        #    .input(video.as_posix())\n",
    "        #    .output(video_out.as_posix(), vcodec = \"libx265\", crf = crf, vtag=\"hvc1\", preset=\"ultrafast\")\n",
    "        #    .run()\n",
    "        #)\n",
    "    \n",
    "        \n",
    "    except KeyError:\n",
    "        # delete bad video file\n",
    "        if video_out.exists():\n",
    "            os.remove(video_out)\n",
    "        break\n",
    "        \n",
    "    except Exception:\n",
    "        # delete bad video file\n",
    "        if video_out.exists():\n",
    "            os.remove(video_out)\n",
    "        \n",
    "        clear_output(wait=True)\n",
    "        print('BACKUP FAILED {}'.format(video))\n",
    "        continue"
   ]
  },
  {
   "cell_type": "code",
   "execution_count": null,
   "id": "65d6cb52",
   "metadata": {},
   "outputs": [],
   "source": []
  },
  {
   "cell_type": "code",
   "execution_count": null,
   "id": "29c12a98",
   "metadata": {},
   "outputs": [],
   "source": []
  }
 ],
 "metadata": {
  "kernelspec": {
   "display_name": "flir_acq",
   "language": "python",
   "name": "flir_acq"
  },
  "language_info": {
   "codemirror_mode": {
    "name": "ipython",
    "version": 3
   },
   "file_extension": ".py",
   "mimetype": "text/x-python",
   "name": "python",
   "nbconvert_exporter": "python",
   "pygments_lexer": "ipython3",
   "version": "3.10.8"
  }
 },
 "nbformat": 4,
 "nbformat_minor": 5
}
